<?xml version="1.0" encoding="utf-8"?>
<!-- Generator: Adobe Illustrator 26.0.3, SVG Export Plug-In . SVG Version: 6.00 Build 0)  -->
<svg version="1.1" id="Capa_1" xmlns="http://www.w3.org/2000/svg" xmlns:xlink="http://www.w3.org/1999/xlink" x="0px" y="0px"
	 viewBox="0 0 595.28 841.89" style="enable-background:new 0 0 595.28 841.89;" xml:space="preserve">
<style type="text/css">
	.st0{fill:#6BA8CB;}
</style>
<path class="st0" d="M336.37,591.91c0.03-0.49,0.28-0.75,0.78-0.77C337.11,591.62,336.85,591.87,336.37,591.91z"/>
<g>
	<path class="st0" d="M244.14,415.41c-4.33,5.99-10,10.71-15.2,15.86c-4.92,4.88-5.11,4.69-10.19-0.45
		c-14.03-14.17-28.02-28.38-42.11-42.49c-4.79-4.8-10.61-6.55-17.16-4.31c-6.06,2.07-9.7,6.55-10.73,12.8
		c-0.88,5.3,0.61,10.12,4.47,14.02c8.16,8.23,16.34,16.42,24.53,24.62c13.06,13.08,26.14,26.13,39.18,39.24
		c5.39,5.42,9.98,5.06,15.23-0.62c4.98-5.38,10.29-10.46,15.62-15.52c7.66-7.29,14.75-15.17,22.28-22.6
		c13.31-13.15,26.5-26.41,39.74-39.63c12.54-12.52,25.1-25.04,37.48-37.72c5.93-6.08,6.31-16.62,0.73-22.43
		c-6.62-6.89-16.52-7.21-23.47-0.9c-3.46,3.14-6.14,7.22-10.69,9.07c1.84-3.22,1.44-7.92,6.6-8.98c1.56-0.32,2.56-2.8,4.16-3.61
		c7.55-3.84,15.58-5.22,22.79-0.03c3.61,2.6,7.24,6.27,6.85,11.96c-0.34,4.91,0.71,10.18-3.06,14.09c-3.09,3.2-4.55,7.8-8.75,9.98
		c-1.87,0.96-2.63,3.07-3.92,4.49c-4.46,4.94-10.1,8.7-13.87,14.38c-1.15,1.73-3.3,3.51-5.46,4.81c-2.31,1.39-4.4,3.26-5.51,5.87
		c-0.62,1.47-1.53,2.51-3.1,2.94c-1.68,0.46-2.77,1.81-3.63,3.09c-3.38,5.07-7.98,8.83-12.61,12.63c-1.87,1.53-3.46,3.39-4.88,5.51
		c-1.86,2.78-4.64,5.03-7.31,7.15c-1.05,0.83-2.6,1.44-3.05,2.58c-2.14,5.42-8.18,6.92-11.16,11.88c-3,4.98-9.75,7.32-12.77,12.51
		c-2.49,4.28-7.46,5.51-9.8,10.1c-1.13,2.23-3.61,5.42-6.81,6.47c-2.06,0.67-0.71,2.82-2.02,3.62c-2.8,1.71-5.28,3.86-8.93,3.99
		c-6.19,0.23-12.1,0.31-14.67-6.92c-5.71-2.65-7.96-9.27-14.14-11.76c-3.88-1.56-5.47-6.5-8.27-9.78c-2.18-2.55-4.79-4.46-7.23-6.49
		c-2.6-2.16-3.88-5.34-6.25-7.24c-4.54-3.64-8.06-8.37-12.83-11.63c-1.59-1.09-2.62-2.21-3.75-3.73c-2.35-3.16-5.26-5.94-8.15-8.67
		c-5.58-5.28-6.92-11.9-6.56-19.17c0.05-0.99,0.66-1.59,1.3-2.17c1.7-1.53,3.04-3.36,3.81-5.45c1.88-5.14,6.38-5.36,10.69-6.03
		c4.87-0.75,9.49,0.94,14.21,1.56c0.35,0.05,0.89,0.21,0.97,0.44c2.1,6.16,8.73,8.27,11.96,13.33c2.76,4.33,7.94,6.39,10.05,11.23
		c4.77-0.04,5.57,4.68,8.23,7.1c3.7,3.37,6.85,7.39,9.96,11.35c1.73,2.22,4.9,2.7,6.08,5.61c0.29,0.71,2.52,0.84,3.36-0.25
		c4.07-5.28,10.31-8.41,13.83-14.25C240.87,415.75,242.41,414.77,244.14,415.41z"/>
	<path class="st0" d="M313.27,344.86c-0.37,3.47-3.29,5.26-5.36,7.36c-18.44,18.74-37.07,37.29-55.66,55.88
		c-0.85,0.85-1.55,2.05-3.08,1.76c1.03-3.54,3.21-6.23,5.86-8.75c5.04-4.79,9.78-9.89,14.81-14.68c4.27-4.06,8.67-8,13.23-11.72
		c2.58-2.11,3.47-5.38,5.91-7.51c4.89-4.26,9.35-8.97,14.56-12.9c2.72-2.05,4.82-4.94,7.15-7.49
		C311.45,345.99,311.97,344.93,313.27,344.86z"/>
	<path class="st0" d="M248.64,410.03c-0.29,2.81-2.19,4.27-4.51,5.38C244.58,412.74,246.16,411.01,248.64,410.03z"/>
</g>
</svg>
