<svg xmlns="http://www.w3.org/2000/svg" viewBox="0 0 382.28 382.91"><defs><style>.cls-1{fill:#eaeaea;}.cls-2{fill:#4b78bc;}.cls-3{fill:#f5f5f5;}.cls-4{fill:#4b79bd;}</style></defs><g id="Capa_2" data-name="Capa 2"><g id="Capa_1-2" data-name="Capa 1"><path class="cls-1" d="M191.18,382.91C86.2,382-2.37,297.9.05,186.52,2.25,85.25,83.58-1.53,194.66,0c102.59,1.44,189.2,83.66,187.6,195C380.79,297.6,298.66,381.44,191.18,382.91Z"/><path class="cls-2" d="M191.15,117c33.9,0,67.8.2,101.7-.16,7.38-.08,9.47,2,9.41,9.42q-.52,65.19,0,130.38c.06,7.45-2.08,9.43-9.43,9.41q-101.7-.39-203.4,0c-7.37,0-9.47-2-9.41-9.41q.53-65.17,0-130.38c0-7.51,2.07-9.48,9.43-9.41C123.4,117.17,157.25,117,191.15,117Z"/><path class="cls-3" d="M191.88,132.13c28.62,0,57.26.22,85.87-.15,7.35-.1,10.24,1.34,10.13,9.57-.5,33.24-.39,66.47-.06,99.72.07,7-1.26,9.66-9.05,9.61q-87.85-.52-175.7,0c-7.28,0-8.61-2.5-8.55-9.08.28-33.56.38-67.15,0-100.71-.11-7.79,2.5-9.19,9.59-9.09C133.31,132.35,162.6,132.13,191.88,132.13Z"/><path class="cls-2" d="M219.1,203.64c.19,11-5.19,17.36-14.16,21.15-2.68,1.13-6.26,1.25-6.05,5.28.29,5.86-3.34,6.17-7.67,6.14s-8.11-.07-7.79-6c.2-3.76-3.16-3.61-5.46-4.53-3.64-1.47-7.51-2.5-10.89-4.44-3.75-2.12-9-3.82-4.21-10.16,3.34-4.47,5.39-7.51,11.26-2.58s13.84,5.73,21.58,4.6c3.86-.56,6.89-2.5,7.37-6.75s-2.5-5.91-5.74-6.93c-6.57-2.06-13.26-3.75-19.86-5.71-9-2.73-15.1-8.44-15.44-18.21-.34-10,5.12-16.68,14.09-20.57,3.44-1.49,7.22-1.52,7.91-7.09.49-4,13.59-4.71,13.85-1.06.56,8,7.23,7.08,11.26,10,2.86,2.09,9.85,2.27,6.26,8.66-2.64,4.64-5.42,9.76-12.58,4.34-4.68-3.54-10.86-4.59-17-3.75-3.88.52-7.2,2.28-7.73,6.41s3.15,5.49,6.26,6.49c6.87,2.21,14,3.75,20.75,6.26C213.77,188.34,219.45,194.3,219.1,203.64Z"/><path class="cls-4" d="M254,205.73c-8.23-.21-13.9-6.25-13.76-14.61s5.79-14,14.28-14a14.33,14.33,0,1,1,.56,28.65c-.36,0-.72,0-1.08,0Z"/><path class="cls-4" d="M143.48,191.24c.1,7.51-6.71,14.56-14.35,14.79a14.64,14.64,0,1,1-.33-29.28C136.39,176.79,143.42,183.7,143.48,191.24Z"/></g></g></svg>