<svg xmlns="http://www.w3.org/2000/svg" viewBox="0 0 382.28 382.91"><defs><style>.cls-1{fill:#eaeaea;}.cls-2{fill:#4978bb;}.cls-3{fill:#f5f5f5;}.cls-4{fill:#4d7bbe;}</style></defs><g id="Capa_2" data-name="Capa 2"><g id="Capa_1-2" data-name="Capa 1"><path class="cls-1" d="M191.18,382.91C86.2,382-2.37,297.9.05,186.52,2.25,85.25,83.58-1.53,194.66,0c102.59,1.44,189.2,83.66,187.6,195C380.79,297.6,298.66,381.44,191.18,382.91Z"/><path class="cls-2" d="M191.92,116.88c30.87,0,61.74-.07,92.56,0,17.26.06,26.28,7.6,26.34,22.24q.21,52.47,0,105c-.07,14.25-9,21.87-25.68,21.9q-94.18.18-188.39,0c-16,0-25.14-7.79-25.24-21.32q-.32-52.89,0-105.87c.07-14.53,9.16-21.86,26.72-21.91C129.47,116.82,160.7,116.88,191.92,116.88Z"/><path class="cls-3" d="M191.83,130.14h88.38c13.17,0,15.07,1.5,15.08,12.26.06,32.89-.17,65.79.15,98.68.09,8.48-3.52,11.89-13.69,11.85q-90.51-.33-181,0c-10.09,0-13.84-3.61-13.76-12q.41-49.78,0-99.58c-.08-8.21,3.82-11.32,13.29-11.25C130.77,130.28,161.29,130.14,191.83,130.14Z"/><path class="cls-4" d="M128,157.27c4.26,0,8.51.18,12.74,0,6.28-.34,10.64-.07,10.54,7.3-.1,6.9-4.18,7-10,6.85-9.56-.19-19.14-.3-28.69,0-6.47.23-9.4-1-9.44-7.34,0-6.92,4.14-7.06,10-6.84C118.13,157.43,123.09,157.27,128,157.27Z"/><path class="cls-4" d="M126.2,198.5c-4.25,0-8.52-.24-12.74,0-6.62.47-10.35-.44-10.28-7.52s4.69-6.68,10.25-6.62c10.26.11,20.55.32,30.8-.06,7.22-.26,6.75,3.44,6.87,7.55s-.71,7-6.84,6.65S132.23,198.49,126.2,198.5Z"/><path class="cls-4" d="M191.39,198.5c-4.6,0-9.22-.2-13.81,0-6.37.35-10.55-.07-10.46-7.36.1-7,4.33-6.87,10.06-6.78,10.27.17,20.56.34,30.81,0,7-.26,7.07,3.13,7,7.41,0,4-.3,7.21-6.66,6.79C202.75,198.22,197,198.49,191.39,198.5Z"/><path class="cls-4" d="M256.1,184.46c4.26,0,8.52.22,12.74-.06,6.52-.43,10.44.29,10.35,7.45s-4.55,6.75-10.17,6.69c-10.26-.14-20.55-.33-30.81,0-7.12.26-6.87-3.31-6.94-7.49s.55-7.06,6.76-6.72C244,184.72,250.09,184.46,256.1,184.46Z"/></g></g></svg>