<?xml version="1.0" encoding="utf-8"?>
<!-- Generator: Adobe Illustrator 25.3.1, SVG Export Plug-In . SVG Version: 6.00 Build 0)  -->
<svg version="1.1" id="Capa_1" xmlns="http://www.w3.org/2000/svg" xmlns:xlink="http://www.w3.org/1999/xlink" x="0px" y="0px"
	 viewBox="0 0 595.28 841.89" style="enable-background:new 0 0 595.28 841.89;" xml:space="preserve">
<style type="text/css">
	.st0{fill:#E3E3E3;}
	.st1{fill:#4B78BC;}
	.st2{fill:#F5F5F5;}
	.st3{fill:#4B79BD;}
</style>
<g>
	<path class="st0" d="M266.64,597.3c-104.98-0.95-193.55-85.01-191.13-196.39c2.2-101.27,83.53-188.05,194.61-186.5
		c102.59,1.44,189.2,83.66,187.6,194.99C456.24,511.99,374.11,595.83,266.64,597.3z"/>
</g>
<g>
	<path class="st1" d="M266.6,346.36c27.09,0,54.18,0.16,81.27-0.13c5.9-0.06,7.57,1.59,7.52,7.53c-0.28,34.73-0.28,69.46,0,104.19
		c0.05,5.95-1.66,7.53-7.53,7.52c-54.18-0.21-108.36-0.21-162.54,0c-5.89,0.03-7.57-1.59-7.52-7.52c0.28-34.73,0.28-69.46,0-104.19
		c-0.05-5.95,1.65-7.58,7.53-7.52C212.42,346.52,239.51,346.36,266.6,346.36z"/>
	<path class="st2" d="M267.19,358.47c22.87,0,45.75,0.18,68.62-0.12c5.87-0.08,8.18,1.07,8.09,7.65
		c-0.4,26.56-0.31,53.12-0.05,79.69c0.06,5.58-1,7.72-7.23,7.68c-46.8-0.28-93.6-0.26-140.4-0.02c-5.82,0.03-6.88-2.01-6.84-7.26
		c0.23-26.82,0.31-53.66-0.04-80.48c-0.08-6.22,2.02-7.34,7.67-7.26C220.38,358.65,243.79,358.47,267.19,358.47z"/>
	<path class="st1" d="M288.94,415.62c0.15,8.75-4.15,13.87-11.32,16.9c-2.14,0.9-4.99,1.03-4.83,4.22c0.23,4.68-2.67,4.93-6.13,4.9
		c-3.37-0.03-6.48-0.05-6.23-4.8c0.16-2.97-2.52-2.88-4.36-3.62c-2.91-1.17-5.99-2.02-8.7-3.55c-2.98-1.69-7.16-3.05-3.37-8.12
		c2.67-3.57,4.31-6.02,8.98-2.06c4.79,4.06,11.06,4.58,17.25,3.68c3.08-0.45,5.5-1.99,5.89-5.4c0.38-3.32-2.02-4.72-4.59-5.53
		c-5.25-1.65-10.6-2.98-15.87-4.57c-7.22-2.18-12.07-6.74-12.34-14.55c-0.27-7.97,4.09-13.33,11.26-16.44
		c2.75-1.19,5.77-1.21,6.32-5.66c0.39-3.23,10.86-3.77,11.07-0.85c0.45,6.42,5.78,5.66,9.03,8.04c2.28,1.67,7.87,1.81,4.96,6.92
		c-2.11,3.71-4.33,7.8-10.05,3.47c-3.74-2.83-8.68-3.67-13.56-3c-3.1,0.42-5.75,1.82-6.17,5.12c-0.41,3.33,2.51,4.39,4.97,5.19
		c5.49,1.77,11.18,2.97,16.58,4.96C284.68,403.43,289.22,408.15,288.94,415.62z"/>
	<path class="st3" d="M316.83,417.29c-6.58-0.17-11.11-4.97-11.04-11.68c0.06-6.7,4.71-11.25,11.45-11.2
		c6.81,0.05,12.12,5.5,11.73,12.03C328.6,412.78,323.36,417.46,316.83,417.29z"/>
	<path class="st3" d="M228.51,405.71c0.08,6.02-5.36,11.63-11.47,11.82c-6.19,0.19-11.7-4.95-11.98-11.16
		c-0.29-6.54,5.19-12.27,11.72-12.24C222.84,394.16,228.43,399.68,228.51,405.71z"/>
</g>
</svg>
