<svg xmlns="http://www.w3.org/2000/svg" viewBox="0 0 382.28 382.91"><defs><style>.cls-1{fill:#eaeaea;}.cls-2{fill:#4978bb;}.cls-3{fill:#f5f5f5;}</style></defs><g id="Capa_2" data-name="Capa 2"><g id="Capa_1-2" data-name="Capa 1"><path class="cls-1" d="M191.18,382.91C86.2,382-2.37,297.9.05,186.52,2.25,85.25,83.58-1.53,194.66,0c102.59,1.44,189.2,83.66,187.6,195C380.79,297.6,298.66,381.44,191.18,382.91Z"/><path class="cls-2" d="M191,272.92q-43.14,0-86.3,0c-15,0-24.53-9.59-24.53-24.68q0-56.75,0-113.49c0-15.1,9.53-24.71,24.53-24.72q86.61,0,173.21,0c14.6,0,24.22,9.72,24.23,24.39q.06,57,0,114.11c0,14.55-9.77,24.36-24.23,24.38C248.91,272.94,219.94,272.9,191,272.92Z"/><path class="cls-3" d="M191.29,198.86c30,0,60,.11,90-.11,4.89,0,6.28,1.31,6.17,6.19-.33,14.38-.08,28.78-.14,43.17,0,7.44-2.54,10-9.94,10q-86,0-172,0c-7.73,0-10.43-2.63-10.46-10.29-.08-14.39.16-28.79-.13-43.17-.1-4.62,1.24-5.91,5.86-5.87C130.88,199,161.08,198.86,191.29,198.86Z"/><path class="cls-3" d="M191.15,154.43c-30,0-60-.09-90,.1-4.62,0-6.9-.87-6.29-6,.43-3.65.09-7.39.09-11.09,0-10.83,1.69-12.58,12.29-12.58H216.36q30.21,0,60.41,0c8.08,0,10.53,2.52,10.58,10.68,0,4.53-.29,9.08.08,13.57s-1.47,5.46-5.64,5.44C251.57,154.37,221.36,154.43,191.15,154.43Z"/><path class="cls-3" d="M191.15,184.06c-30,0-60-.25-89.93.18-6.93.1-6.27-3.34-6.38-7.88-.11-4.69.2-7.29,6.34-7.27q89.94.39,179.87,0c6.91,0,6.27,3.33,6.38,7.88s-.18,7.35-6.35,7.28C251.12,183.86,221.13,184.06,191.15,184.06Z"/><path class="cls-2" d="M131.9,243.29c-5.74,0-11.49-.25-17.2.08-4.26.25-5.48-1.52-5-5.36a18.11,18.11,0,0,0,0-4.29c-.49-3.94.9-5.41,5.06-5.32q17.19.39,34.4,0c4.24-.1,5.47,1.53,5,5.38a17.11,17.11,0,0,0,0,4.29c.48,3.92-.89,5.54-5.07,5.3C143.39,243.05,137.64,243.29,131.9,243.29Z"/></g></g></svg>